<?xml version="1.0" encoding="UTF-8"?>
<!-- Generator: https://ezgif.com/png-to-svg -->
<svg version="1.1" xmlns="http://www.w3.org/2000/svg" width="33" height="33">
<path d="M0 0 C4.3 1.65 7.01 4.82 10.12 8.06 C13.7 12 13.7 12 18 15 C18 18 18 18 16.47 19.61 C15.82 20.13 15.17 20.65 14.5 21.19 C13.85 21.72 13.2 22.25 12.53 22.79 C12.03 23.19 11.52 23.59 11 24 C11.31 24.93 11.62 25.86 11.94 26.81 C12.62 28.88 13.31 30.94 14 33 C11.11 32.6 10.18 32.21 8.25 29.94 C7.84 29.3 7.43 28.66 7 28 C6.22 28.82 5.43 29.65 4.62 30.5 C2 33 2 33 0 33 C-1.35 31.35 -2.69 29.68 -4 28 C-4.66 27.67 -5.32 27.34 -6 27 C-6.66 28.98 -7.32 30.96 -8 33 C-9.32 32.67 -10.64 32.34 -12 32 C-10.35 29.36 -8.7 26.72 -7 24 C-7.66 24 -8.32 24 -9 24 C-10.35 22.35 -11.69 20.68 -13 19 C-13.66 18.67 -14.32 18.34 -15 18 C-15 15 -15 15 -13.5 13.46 C-12.82 12.91 -12.14 12.37 -11.44 11.81 C-7.15 8.23 -3.56 4.29 0 0 Z M-1.59 5.57 C-2.18 6.27 -2.77 6.97 -3.38 7.69 C-3.99 8.41 -4.61 9.14 -5.25 9.89 C-7.19 12.23 -9.12 14.6 -11 17 C-9.02 18.65 -7.04 20.3 -5 22 C-4.16 20.54 -3.33 19.09 -2.5 17.62 C-2.04 16.81 -1.57 16 -1.09 15.16 C0.15 13.11 0.15 13.11 0 11 C0.66 11 1.32 11 2 11 C2.25 11.7 2.49 12.4 2.75 13.12 C4.16 16.37 5.98 19.1 8 22 C10.97 19.52 10.97 19.52 14 17 C10.2 12.45 6.34 8.05 2 4 C-0.14 3.77 -0.14 3.77 -1.59 5.57 Z M1 16 C-0.65 18.97 -2.3 21.94 -4 25 C-2.68 26.32 -1.36 27.64 0 29 C2.34 28.06 3.82 27.2 5.5 25.31 C6.12 22.45 5.55 21.74 4.12 19.25 C3.42 18.18 2.72 17.11 2 16 C1.67 16 1.34 16 1 16 Z " fill="#EE5327" transform="translate(15,0)"/>
<path d="M0 0 C0.66 0 1.32 0 2 0 C3.54 2.08 3.54 2.08 5.19 4.81 C6.01 6.15 6.01 6.15 6.86 7.52 C8 10 8 10 7 13 C4.66 10.74 2.81 8.72 1 6 C-1.97 11.28 -4.94 16.56 -8 22 C-9.32 21.67 -10.64 21.34 -12 21 C-11.56 20.26 -11.56 20.26 -11.11 19.5 C-9.78 17.25 -8.45 15 -7.12 12.75 C-6.43 11.58 -6.43 11.58 -5.73 10.39 C-5.29 9.64 -4.84 8.89 -4.38 8.11 C-3.97 7.42 -3.57 6.73 -3.15 6.01 C-2.02 4.04 -1 2.04 0 0 Z " fill="#73C044" transform="translate(15,11)"/>
<path d="M0 0 C3.75 1.25 4.24 2.57 6 6 C6 6.66 6 7.32 6 8 C4.12 7.75 4.12 7.75 2 7 C0.28 4.42 0 3.15 0 0 Z " fill="#72C144" transform="translate(23,25)"/>
</svg>
